<svg version="1.1" xmlns="http://www.w3.org/2000/svg" width="15" height="16" viewBox="0 0 15 16">
<path fill="#c71d23" d="M15.31 7.975c0 4.228-3.427 7.655-7.655 7.655s-7.655-3.427-7.655-7.655c0-4.228 3.427-7.655 7.655-7.655s7.655 3.427 7.655 7.655z"></path>
<path fill="#fff" d="M11.53 7.125h-4.347c-0.209 0-0.378 0.169-0.378 0.378l-0 0.945c-0 0.209 0.169 0.378 0.378 0.378 0 0 0 0 0-0l2.647-0c0.209 0 0.378 0.169 0.378 0.378 0 0 0 0 0 0v0.189c0 0.626-0.508 1.134-1.134 1.134h-3.592c-0.209-0-0.378-0.169-0.378-0.378l-0-3.591c-0-0.626 0.508-1.134 1.134-1.134 0 0 0 0 0 0h5.292c0.209-0 0.378-0.169 0.378-0.378l0.001-0.945c0-0.209-0.169-0.378-0.378-0.378-0 0-0 0-0 0h-5.292c-1.566 0-2.835 1.269-2.835 2.835v5.292c0 0.209 0.169 0.378 0.378 0.378h5.576c1.409 0 2.552-1.142 2.552-2.552v-2.174c0-0.209-0.169-0.378-0.378-0.378z"></path>
</svg>
