<svg viewBox="0 0 25 20.6505" xmlns="http://www.w3.org/2000/svg" xmlns:xlink="http://www.w3.org/1999/xlink" width="25.000000" height="20.650513" fill="none" customFrame="#000000">
	<path id="微信" d="M7.23906 0.159525C-0.139573 1.47742 -2.59912 9.81383 3.27006 13.6296C3.59188 13.8364 3.59188 13.8134 3.10912 15.254L2.6954 16.4875L4.18186 15.6908L5.66832 14.8939L6.45753 15.0855C7.28498 15.2923 8.34241 15.4379 9.04728 15.4379L9.46875 15.4379L9.32311 14.8786C8.16616 10.6184 12.1658 6.39658 17.3683 6.39658L18.0733 6.39658L17.9277 5.89089C16.786 1.89883 11.9666 -0.683293 7.23906 0.159525ZM6.59542 3.89098C7.37695 4.41973 7.42293 5.56138 6.67201 6.05176C5.45377 6.8486 4.0286 5.44642 4.84843 4.2511C5.20854 3.7148 6.07442 3.53855 6.59542 3.89098ZM12.8784 3.89098C14.1657 4.75686 13.2002 6.75663 11.7597 6.20495C10.7177 5.80654 10.595 4.37375 11.5681 3.86037C11.9512 3.65351 12.5489 3.66881 12.8784 3.89098ZM15.721 7.04784C12.0662 7.71441 9.52997 10.4881 9.67561 13.6755C9.86717 17.9434 14.8705 20.8856 19.6747 19.5677L20.2416 19.4145L21.437 20.0582C22.0959 20.4183 22.6476 20.6788 22.6629 20.6481C22.6783 20.6098 22.5481 20.15 22.3794 19.6214C21.9964 18.4414 21.9887 18.5257 22.5021 18.1579C28.2792 14.0126 23.2069 5.69164 15.721 7.04784ZM15.5755 10.4881C15.8972 10.7026 16.0658 11.239 15.9278 11.6297C15.6367 12.4649 14.3878 12.5262 14.0506 11.7217C13.6675 10.7946 14.725 9.93641 15.5755 10.4881ZM20.6937 10.5801C21.1994 11.0628 21.1151 11.8826 20.5252 12.1891C19.621 12.6488 18.671 11.7294 19.1383 10.8483C19.4448 10.2812 20.234 10.1433 20.6937 10.5801Z" fill="rgb(132,132,132)" fill-rule="nonzero" />
</svg>
