<svg version="1.1" xmlns="http://www.w3.org/2000/svg" width="24" height="24" viewBox="0 0 24 24">
<path fill="currentColor" d="M11.75 1.9c3.9 0 7.075 3.096 7.203 6.964l0.004 0.243v4.99c-0.001 3.852-3.123 6.974-6.975 6.974v0c-0.331 0-0.6-0.269-0.6-0.6s0.269-0.6 0.6-0.6v0c0 0 0 0 0 0 3.111 0 5.648-2.461 5.77-5.542l0-0.011 0.004-0.222v-4.989c0-0.002 0-0.004 0-0.006 0-3.318-2.689-6.007-6.007-6.007-3.241 0-5.882 2.566-6.003 5.777l-0 0.011-0.004 0.225v4.725c-0 0.331-0.269 0.599-0.6 0.599-0.297 0-0.543-0.216-0.591-0.499l-0-0.004-0.008-0.097v-4.725c0-3.98 3.227-7.207 7.207-7.207v0z"></path>
<path fill="currentColor" d="M3.821 9.3c-1.060 0-1.921 0.86-1.921 1.921v2.643c0 1.061 0.86 1.921 1.922 1.921s1.921-0.86 1.921-1.921v0-2.643c0-1.060-0.86-1.921-1.922-1.921zM3.821 10.5c0.399 0 0.722 0.323 0.722 0.721v2.643c0 0.398-0.323 0.721-0.721 0.721s-0.721-0.323-0.721-0.721v0-2.643c0-0.398 0.323-0.721 0.721-0.721zM19.679 9.3c-1.062 0-1.922 0.86-1.922 1.921v2.643c0 1.061 0.86 1.921 1.922 1.921s1.922-0.86 1.922-1.921v0-2.643c0-1.060-0.86-1.921-1.921-1.921zM19.679 10.5c0.398 0 0.721 0.323 0.721 0.721v2.643c0 0.398-0.323 0.721-0.721 0.721s-0.721-0.323-0.721-0.721v0-2.643c0-0.398 0.323-0.721 0.722-0.721zM12.543 19.467h-1.586c-0.555 0-1.005 0.45-1.005 1.005s0.45 1.005 1.005 1.005v0h1.586c0.555 0 1.005-0.45 1.005-1.005s-0.45-1.005-1.005-1.005v0zM10.957 20.419h1.586c0.026 0.004 0.046 0.026 0.046 0.053s-0.020 0.049-0.045 0.052l-0 0h-1.586c-0.002 0-0.005 0-0.007 0-0.029 0-0.053-0.024-0.053-0.053s0.024-0.053 0.053-0.053c0.003 0 0.005 0 0.008 0.001l-0-0z"></path>
</svg>
