<!-- Generated by IcoMoon.io -->
<svg version="1.1" xmlns="http://www.w3.org/2000/svg" width="24" height="24" viewBox="0 0 24 24">
<path opacity="0.8" fill="currentColor" d="M9.54 3.3c-1.105 0-2 0.895-2 2v6.807l0.005 0.149c0.076 1.035 0.94 1.851 1.994 1.851l4.966-0.001 3.043 2.941 0.077 0.065c0.448 0.329 1.11 0.015 1.11-0.568l-0.001-2.437c-0.012 0-0.023 0-0.035 0l0.035-0.002v0.002c1.088-0.019 1.965-0.907 1.965-2v-6.807c0-1.105-0.895-2-2-2h-9.16zM18.7 4.7c0.331 0 0.6 0.269 0.6 0.6v6.807c0 0.331-0.269 0.6-0.6 0.6h-0.664l-0.095 0.006c-0.342 0.046-0.605 0.339-0.605 0.694l-0.001 1.486-2.059-1.99c-0.13-0.126-0.305-0.197-0.486-0.197h-5.25c-0.331 0-0.6-0.269-0.6-0.6v-6.807c0-0.331 0.269-0.6 0.6-0.6h9.16zM5.3 7.167c-1.105 0-2 0.895-2 2v6.499c0 1.054 0.816 1.918 1.851 1.995l0.031 0-0 2.339c0 0.585 0.665 0.898 1.112 0.566l0.077-0.065 2.906-2.835h5.155c0.354 0 0.647-0.263 0.694-0.605l0.006-0.095c0-0.387-0.313-0.7-0.7-0.7h-5.44c-0.183 0-0.358 0.071-0.489 0.199l-1.921 1.874-0-1.373c0-0.354-0.263-0.647-0.605-0.694l-0.095-0.006h-0.582c-0.331 0-0.6-0.269-0.6-0.6v-6.499c0-0.331 0.269-0.6 0.6-0.6h0.693c0.387 0 0.7-0.313 0.7-0.7s-0.313-0.7-0.7-0.7h-0.693zM16.62 9.060c0 0.381 0.309 0.69 0.69 0.69s0.69-0.309 0.69-0.69c0-0.381-0.309-0.69-0.69-0.69s-0.69 0.309-0.69 0.69zM11.309 9.75c-0.381 0-0.69-0.309-0.69-0.69s0.309-0.69 0.69-0.69 0.69 0.309 0.69 0.69c0 0.381-0.309 0.69-0.69 0.69zM14.31 9.75c-0.381 0-0.69-0.309-0.69-0.69s0.309-0.69 0.69-0.69 0.69 0.309 0.69 0.69c0 0.381-0.309 0.69-0.69 0.69z"></path>
</svg>
