<svg version="1.1" xmlns="http://www.w3.org/2000/svg" width="24" height="24" viewBox="0 0 24 24">
<path fill="currentColor" d="M11.965 2.39l0.133 0.006c1.098 0.086 2.068 1.162 3.025 3.345l0.132 0.417 0.048 0.115 0.414-0.329c0.541-0.402 1.139-0.632 1.785-0.683l0.288-0.011c1.199 0 1.792 1.541 1.596 4.045-0.182 2.326-1.023 4.484-2.268 5.785-1.186 1.241-2.725 2.017-4.375 2.208l-0.148-0.020-0 4.105c0 0.342-0.277 0.618-0.618 0.618-0.299 0-0.555-0.214-0.609-0.511l-0.010-0.126 0.038-4.039-0.188-0.020c-1.667-0.177-3.215-0.952-4.418-2.217-1.282-1.348-2.134-3.525-2.292-5.825-0.169-2.463 0.48-4.003 1.727-4.003 0.842 0 1.588 0.26 2.223 0.775l0.14 0.179 0.052 0.046 0.209-0.505c0.911-2.167 1.853-3.246 2.935-3.347l0.183-0.008zM3.23 16.799l0.355 0.019c3.164 0.209 5.426 1.459 6.738 3.724 0.171 0.296 0.070 0.674-0.225 0.845s-0.674 0.070-0.845-0.225c-1.143-1.974-3.148-3.007-6.073-3.127-0.341-0.014-0.607-0.302-0.593-0.643s0.302-0.607 0.643-0.593zM20.77 16.799c0.341-0.014 0.629 0.251 0.643 0.593s-0.251 0.629-0.593 0.643c-2.925 0.12-4.93 1.153-6.073 3.127-0.171 0.296-0.55 0.396-0.845 0.225s-0.396-0.55-0.225-0.845c1.36-2.349 3.743-3.606 7.093-3.743zM11.953 3.627c-0.597 0-1.336 1.024-2.093 2.912l-0.271 0.712-0.138 0.39c-0.169 0.492-0.831 0.569-1.108 0.13-0.55-0.87-1.235-1.285-2.12-1.285-0.337 0-0.587 1.305-0.493 2.682 0.137 2.004 0.876 3.924 1.954 5.057 1.162 1.221 2.69 1.885 4.302 1.871 1.585-0.013 3.099-0.682 4.237-1.872 1.040-1.088 1.77-2.997 1.929-5.027 0.029-0.372 0.036-0.742 0.020-1.104l-0.032-0.453-0.023-0.207-0.051-0.34-0.053-0.259-0.045-0.168-0.039-0.112c-0.009-0.025-0.016-0.039-0.022-0.048l-0.009-0.010c-0.006-0.006-0.010-0.008-0.034-0.009l-0.083-0.001-0.174 0.007c-0.741 0.057-1.388 0.485-1.974 1.307-0.289 0.406-0.915 0.32-1.085-0.149l-0.207-0.553c-0.862-2.225-1.721-3.472-2.389-3.472z"></path>
</svg>
