<svg version="1.1" xmlns="http://www.w3.org/2000/svg" width="32" height="32" viewBox="0 0 32 32">
<path opacity="0.8" fill="currentColor" d="M19.943 3.582c-1.265-0.401-2.59-0.608-3.943-0.608-7.193 0-13.024 5.831-13.024 13.024s5.831 13.024 13.024 13.024c7.193 0 13.024-5.831 13.024-13.024 0-4.169-1.973-8.011-5.254-10.453-0.413-0.308-0.998-0.222-1.306 0.191s-0.222 0.998 0.191 1.306c2.812 2.094 4.502 5.383 4.502 8.956 0 6.162-4.995 11.157-11.157 11.157s-11.157-4.995-11.157-11.157c0-6.162 4.995-11.157 11.157-11.157 1.16 0 2.296 0.177 3.378 0.52 0.491 0.156 1.016-0.116 1.172-0.607s-0.116-1.016-0.607-1.172zM21.456 13.523c0-2.853-2.313-5.165-5.165-5.165s-5.165 2.312-5.165 5.165c0 0.515 0.418 0.933 0.933 0.933s0.933-0.418 0.933-0.933c0-1.822 1.477-3.298 3.298-3.298s3.298 1.477 3.298 3.298c0 1.642-1.208 3.028-2.815 3.263-1.099 0.258-1.777 1.347-1.777 2.309v1.097l0.009 0.127c0.062 0.456 0.452 0.807 0.925 0.807 0.515 0 0.933-0.418 0.933-0.933v-1.097l0.010-0.079c0.039-0.167 0.181-0.382 0.252-0.399 2.44-0.354 4.33-2.523 4.33-5.095zM16.001 21.679c0.835 0 1.511 0.677 1.511 1.511s-0.677 1.511-1.511 1.511c-0.835 0-1.511-0.677-1.511-1.511s0.677-1.511 1.511-1.511z"></path>
</svg>
