<svg version="1.1" xmlns="http://www.w3.org/2000/svg" width="32" height="32" viewBox="0 0 32 32">
<path opacity="0.8" fill="currentColor" d="M16.8 24.267c0 0.589-0.477 1.067-1.066 1.067-0.589 0-1.066-0.478-1.066-1.067v-16.533c0-0.589 0.478-1.067 1.066-1.067 0.59 0 1.066 0.478 1.066 1.067v16.533zM5.939 15.772c0.237-0.179 1.040-0.789 1.779-1.359 0.84-0.645 1.38-1.042 1.445-1.062 0.172-0.056 0.354 0.016 0.464 0.174 0.059 0.080 0.068 0.232 0.072 0.888l0.003 0.787h2.987c0.147 0 0.267 0.119 0.267 0.267v1.916c0 0.147-0.12 0.267-0.267 0.267h-2.99v0.819c-0.004 0.857-0.020 0.926-0.243 1.037-0.092 0.049-0.326 0.058-0.37 0.013-0.009-0.009-0.813-0.62-1.78-1.356-0.97-0.738-1.802-1.379-1.849-1.425-0.159-0.159-0.163-0.435-0.012-0.578 0.033-0.033 0.259-0.205 0.495-0.388zM23.904 14.414c0.738 0.569 1.542 1.18 1.779 1.359 0.236 0.183 0.462 0.355 0.495 0.388 0.151 0.143 0.147 0.419-0.012 0.578-0.047 0.047-0.879 0.687-1.849 1.425-0.967 0.736-1.771 1.347-1.78 1.356-0.044 0.045-0.277 0.036-0.37-0.013-0.224-0.111-0.24-0.181-0.243-1.037v-0.819h-2.99c-0.147 0-0.267-0.119-0.267-0.267v-1.916c0-0.147 0.12-0.267 0.267-0.267h2.987l0.003-0.787c0.004-0.656 0.013-0.807 0.072-0.888 0.109-0.159 0.292-0.23 0.464-0.174 0.065 0.020 0.605 0.417 1.445 1.062z"></path>
</svg>
