<svg version="1.1" xmlns="http://www.w3.org/2000/svg" width="24" height="24" viewBox="0 0 24 24">
<path fill="currentColor" d="M12 2.232c1.014 0 2.009 0.155 2.957 0.456 0.369 0.117 0.572 0.51 0.456 0.879s-0.51 0.572-0.879 0.456c-0.812-0.258-1.663-0.39-2.534-0.39-4.622 0-8.368 3.747-8.368 8.368s3.747 8.368 8.368 8.368c4.622 0 8.368-3.747 8.368-8.368 0-2.679-1.267-5.147-3.376-6.717-0.31-0.231-0.374-0.669-0.143-0.979s0.669-0.374 0.979-0.143c2.46 1.832 3.94 4.713 3.94 7.84 0 5.395-4.373 9.768-9.768 9.768s-9.768-4.373-9.768-9.768c0-5.395 4.373-9.768 9.768-9.768zM12 16.26c0.626 0 1.134 0.507 1.134 1.134s-0.507 1.134-1.134 1.134c-0.626 0-1.134-0.507-1.134-1.134s0.507-1.134 1.134-1.134zM12.218 6.269c2.139 0 3.874 1.734 3.874 3.874 0 1.929-1.418 3.556-3.247 3.821-0.053 0.013-0.16 0.174-0.189 0.299l-0.008 0.059v0.823c0 0.387-0.313 0.7-0.7 0.7-0.354 0-0.647-0.263-0.694-0.605l-0.006-0.095v-0.823c0-0.721 0.509-1.538 1.333-1.732 1.205-0.177 2.111-1.216 2.111-2.448 0-1.366-1.108-2.474-2.474-2.474s-2.474 1.108-2.474 2.474c0 0.387-0.313 0.7-0.7 0.7s-0.7-0.313-0.7-0.7c0-2.139 1.734-3.874 3.874-3.874z"></path>
</svg>
