<svg version="1.1" xmlns="http://www.w3.org/2000/svg" width="32" height="32" viewBox="0 0 32 32">
<path d="M25.067 4.4c1.399 0 2.533 1.134 2.533 2.533v12.169c0 0.515-0.418 0.933-0.933 0.933s-0.933-0.418-0.933-0.933v-12.169c0-0.368-0.298-0.667-0.667-0.667h-13.467v19.467h13.467c0.368 0 0.667-0.298 0.667-0.667v-2.827c0-0.515 0.418-0.933 0.933-0.933s0.933 0.418 0.933 0.933v2.827c0 1.399-1.134 2.533-2.533 2.533h-18.133c-1.399 0-2.533-1.134-2.533-2.533v-18.133c0-1.399 1.134-2.533 2.533-2.533h18.133zM9.733 6.267h-2.8c-0.368 0-0.667 0.298-0.667 0.667v18.133c0 0.368 0.298 0.667 0.667 0.667h2.8v-19.467zM17.807 11.275l4 4c0.364 0.364 0.364 0.955 0 1.32l-4 4c-0.364 0.364-0.955 0.364-1.32 0s-0.364-0.955 0-1.32l3.341-3.34-3.341-3.34c-0.328-0.328-0.361-0.84-0.098-1.204l0.098-0.116c0.364-0.364 0.955-0.364 1.32 0z"></path>
</svg>
